#!OML:ASF F:\VICON\USERDATA\INSTALL\rory3\rory3.ASF
:FULLY-SPECIFIED
:DEGREES
349
root 1.28761 17.884 31.6226 -3.5281 -1.98387 2.09109
lowerback 9.1047 -0.579447 -3.01804
upperback 1.07626 -1.01816 1.26464
thorax -3.91126 -0.450879 3.1401
lowerneck -15.6609 -2.69272 -1.69961
upperneck 18.2508 -3.49132 0.912274
head 8.29962 -1.67812 0.177676
rclavicle -1.19271e-014 1.59028e-015
rhumerus -32.9065 -11.9468 -80.5643
rradius 29.8857
rwrist 1.43466
rhand -12.9497 19.4821
rfingers 7.12502
rthumb 13.1417 -10.0837
lclavicle -1.19271e-014 1.59028e-015
lhumerus -31.4666 -6.93839 81.9196
lradius 36.117
lwrist 5.05493
lhand -22.7865 28.2693
lfingers 7.12502
lthumb 3.64924 58.2178
rfemur -31.0557 -0.798379 20.4218
rtibia 53.2214
rfoot -9.73298 -7.44196
rtoes -14.496
lfemur -2.52356 -3.22092 -27.6295
ltibia 27.2744
lfoot -18.1279 1.09201
ltoes -12.6457
350
root 1.28258 17.8794 31.7762 -3.23949 -1.97866 2.12609
lowerback 8.86554 -0.634956 -3.18023
upperback 1.09857 -1.09798 1.33821
thorax -3.744 -0.491441 3.31262
lowerneck -16.642 -2.8821 -1.63083
upperneck 18.9351 -3.72853 0.747309
head 8.70577 -1.79438 0.063267
rclavicle 6.23687e-015 7.15625e-015
rhumerus -32.8621 -11.6862 -80.6433
rradius 30.1285
rwrist 0.932453
rhand -13.2676 21.4225
rfingers 7.12502
rthumb 12.8352 -8.16289
lclavicle 6.23687e-015 7.15625e-015
lhumerus -31.0721 -6.96279 81.7989
lradius 36.3339
lwrist 5.05031
lhand -23.506 26.4312
lfingers 7.12502
lthumb 2.9544 56.3905
rfemur -31.3176 -0.521283 20.3634
rtibia 50.1158
rfoot -9.56524 -8.01432
rtoes -15.5177
lfemur -2.07971 -3.35251 -27.7301
ltibia 26.8964
lfoot -18.3536 1.26987
ltoes -12.7477
351
root 1.27652 17.8795 31.9343 -3.05077 -1.93613 1.92803
lowerback 8.83612 -0.720635 -3.04442
upperback 1.04449 -1.19393 1.44619
thorax -3.77667 -0.538905 3.35986
lowerneck -16.9872 -2.89553 -1.61819
upperneck 19.212 -3.74083 0.710076
head 8.8618 -1.80027 0.0396462
rclavicle 1.50331e-014 -3.18055e-015
rhumerus -32.9621 -11.4022 -80.7355
rradius 30.3543
rwrist 0.753592
rhand -13.308 22.0373
rfingers 7.12502
rthumb 12.7963 -7.55056
lclavicle 1.50331e-014 -3.18055e-015
lhumerus -30.9293 -7.26733 81.8212
lradius 36.4217
lwrist 4.69374
lhand -25.0869 24.005
lfingers 7.12502
lthumb 1.4276 53.98
rfemur -31.3228 -0.159544 20.5299
rtibia 46.9368
rfoot -9.50343 -8.61172
rtoes -16.1652
lfemur -1.43699 -3.33157 -27.53
ltibia 26.3862
lfoot -18.5346 1.25978
ltoes -12.9135
352
root 1.27014 17.8795 32.1001 -2.9995 -2.02838 2.11485
lowerback 8.70778 -0.692792 -3.25824
upperback 1.03505 -1.17476 1.42584
thorax -3.71253 -0.527656 3.45448
lowerneck -16.8647 -2.9052 -1.69395
upperneck 19.2046 -3.75904 0.81163
head 8.84113 -1.8041 0.0860695
rclavicle -6.06293e-015 6.36111e-015
rhumerus -32.9529 -11.4563 -80.6462
rradius 30.1169
rwrist 0.987972
rhand -13.3098 21.7414
rfingers 7.12502
rthumb 12.7945 -7.84655
lclavicle -6.06293e-015 6.36111e-015
lhumerus -30.7396 -7.26723 81.611
lradius 37.062
lwrist 5.6099
lhand -26.014 26.9886
lfingers 7.12502
lthumb 0.532268 56.9677
rfemur -31.1608 0.230784 20.2419
rtibia 43.7133
rfoot -9.15421 -8.88479
rtoes -15.9647
lfemur -0.548618 -3.076 -27.7484
ltibia 25.7647
lfoot -18.6793 1.31556
ltoes -12.8177
353
root 1.26552 17.8691 32.2613 -2.84949 -2.00971 2.55021
lowerback 8.5104 -0.692621 -3.73187
upperback 0.977197 -1.21723 1.32835
thorax -3.65128 -0.542997 3.62164
lowerneck -16.574 -2.88309 -1.56771
upperneck 19.1526 -3.74705 0.725197
head 8.76616 -1.80064 0.04238
rclavicle 3.80176e-015 -7.95139e-016
rhumerus -32.8712 -11.7297 -80.4961
rradius 29.6921
rwrist 1.26524
rhand -13.3309 21.9151
rfingers 7.12502
rthumb 12.7742 -7.67408
lclavicle 3.80176e-015 -7.95139e-016
lhumerus -30.6203 -7.30792 81.4
lradius 37.5815
lwrist 5.8594
lhand -26.6465 28.2476
lfingers 7.12502
lthumb -0.0786631 58.2273
rfemur -31.1018 0.590074 19.6236
rtibia 40.3603
rfoot -8.53749 -9.10893
rtoes -16.1042
lfemur 0.219747 -3.02002 -28.2521
ltibia 25.0931
lfoot -18.7797 1.41929
ltoes -13.0934
354
root 1.2575 17.8649 32.4145 -2.53698 -1.99582 2.41586
lowerback 8.34072 -0.732113 -3.66285
upperback 0.926456 -1.25525 1.3979
thorax -3.60582 -0.562701 3.65614
lowerneck -16.5334 -2.86768 -1.60797
upperneck 19.1515 -3.74121 0.838973
head 8.76164 -1.78878 0.0887792
rclavicle -6.80837e-015 1.59028e-015
rhumerus -32.6344 -11.8993 -80.476
rradius 29.3778
rwrist 1.39206
rhand -13.303 22.1295
rfingers 7.12502
rthumb 12.8011 -7.458
lclavicle -6.80837e-015 1.59028e-015
lhumerus -30.3286 -7.57176 81.2514
lradius 37.8711
lwrist 6.06775
lhand -27.2383 27.2755
lfingers 7.12502
lthumb -0.650287 57.2543
rfemur -31.177 1.27907 19.5626
rtibia 36.9164
rfoot -8.2769 -9.72342
rtoes -16.4115
lfemur 0.830468 -2.9827 -28.0836
ltibia 24.3175
lfoot -18.882 1.20071
ltoes -13.4891
355
root 1.24961 17.8592 32.5697 -2.24148 -1.94525 2.33341
lowerback 8.19094 -0.785895 -3.60491
upperback 0.893443 -1.31512 1.4411
thorax -3.5514 -0.593762 3.67173
lowerneck -16.7049 -2.83842 -1.77034
upperneck 19.2964 -3.72276 1.13019
head 8.85151 -1.75869 0.212768
rclavicle -9.39258e-015 7.95139e-016
rhumerus -32.7147 -11.7466 -80.5945
rradius 29.7368
rwrist 1.30835
rhand -13.2574 21.8516
rfingers 7.12502
rthumb 12.8451 -7.73318
lclavicle -9.39258e-015 7.95139e-016
lhumerus -29.9573 -7.94816 81.1184
lradius 38.052
lwrist 6.39587
lhand -27.1634 25.9061
lfingers 7.12502
lthumb -0.577942 55.885
rfemur -31.0842 2.0165 19.362
rtibia 33.408
rfoot -8.78693 -10.4411
rtoes -16.6119
lfemur 1.50626 -2.99958 -27.986
ltibia 23.5377
lfoot -18.9182 1.03159
ltoes -12.8236
356
root 1.24414 17.8488 32.7343 -2.09111 -1.8646 2.84779
lowerback 8.05728 -0.83267 -4.12879
upperback 0.805885 -1.42503 1.32019
thorax -3.54837 -0.64014 3.8515
lowerneck -16.308 -2.77995 -1.85721
upperneck 19.1651 -3.66151 1.29746
head 8.73911 -1.72167 0.297611
rclavicle 1.39149e-014 -9.54166e-015
rhumerus -32.99 -11.6119 -80.6013
rradius 29.9601
rwrist 1.36623
rhand -13.2255 21.6376
rfingers 7.12502
rthumb 12.8758 -7.94518
lclavicle 1.39149e-014 -9.54166e-015
lhumerus -29.7664 -8.18077 81.0121
lradius 38.1862
lwrist 6.67456
lhand -27.0271 25.6072
lfingers 7.12502
lthumb -0.446253 55.5865
rfemur -30.726 2.59876 18.5078
rtibia 29.8751
rfoot -9.39333 -10.8861
rtoes -16.5517
lfemur 2.36311 -2.89617 -28.5597
ltibia 22.7119
lfoot -19.0387 0.916602
ltoes -12.5738
357
root 1.23668 17.8459 32.911 -1.94529 -1.78871 2.99532
lowerback 7.78317 -0.869176 -4.2662
upperback 0.741775 -1.47579 1.30886
thorax -3.45375 -0.66481 3.91632
lowerneck -15.842 -2.80438 -2.03672
upperneck 18.9496 -3.68997 1.45939
head 8.58909 -1.73518 0.38578
rclavicle -1.1281e-014 -1.59028e-015
rhumerus -33.0458 -11.7272 -80.4435
rradius 29.6635
rwrist 1.56861
rhand -13.2286 21.7042
rfingers 7.12502
rthumb 12.8729 -7.87877
lclavicle -1.1281e-014 -1.59028e-015
lhumerus -29.6014 -8.50535 80.9914
lradius 38.3355
lwrist 6.87364
lhand -27.577 25.3991
lfingers 7.12502
lthumb -0.977395 55.3766
rfemur -30.3488 3.35743 17.9922
rtibia 26.522
rfoot -9.77953 -11.3338
rtoes -16.0464
lfemur 3.40676 -2.85801 -28.7472
ltibia 21.6224
lfoot -19.1012 0.880213
ltoes -13.0447
358
root 1.2304 17.843 33.0931 -1.75738 -1.63794 3.09214
lowerback 7.27486 -0.935856 -4.26695
upperback 0.813637 -1.54389 1.26387
thorax -3.08925 -0.710051 3.86103
lowerneck -15.8183 -2.80684 -2.0644
upperneck 18.911 -3.69737 1.51179
head 8.57349 -1.7354 0.407596
rclavicle 3.04886e-014 3.18055e-015
rhumerus -32.9062 -11.8825 -80.4116
rradius 29.4805
rwrist 1.81021
rhand -13.1921 21.4499
rfingers 7.12502
rthumb 12.908 -8.13088
lclavicle 3.04886e-014 3.18055e-015
lhumerus -29.3387 -8.66285 80.8827
lradius 38.5045
lwrist 6.53765
lhand -28.0254 24.7377
lfingers 7.12502
lthumb -1.4104 54.7128
rfemur -30.0388 4.24799 17.3774
rtibia 23.3159
rfoot -9.95168 -11.8307
rtoes -16.2013
lfemur 4.44356 -2.84489 -28.86
ltibia 20.5013
lfoot -19.0927 0.704317
ltoes -13.3091
359
root 1.22523 17.832 33.2729 -1.73841 -1.38974 3.6983
lowerback 6.9817 -0.996518 -4.78452
upperback 0.886954 -1.65646 1.07833
thorax -2.82909 -0.769604 3.96051
lowerneck -15.7688 -2.79197 -2.02006
upperneck 18.9054 -3.69152 1.52409
head 8.56192 -1.72852 0.405856
rclavicle -8.19987e-016 -3.18055e-015
rhumerus -32.7894 -12.2112 -80.335
rradius 29.2867
rwrist 2.13629
rhand -13.2801 21.2701
rfingers 7.12502
rthumb 12.8232 -8.31606
lclavicle -8.19987e-016 -3.18055e-015
lhumerus -29.2102 -8.78445 80.7847
lradius 38.8124
lwrist 6.32349
lhand -27.4718 25.4536
lfingers 7.12502
lthumb -0.87575 55.4316
rfemur -29.5215 5.22225 16.0698
rtibia 20.1072
rfoot -10.0693 -12.3471
rtoes -16.4648
lfemur 5.49989 -2.68286 -29.4885
ltibia 19.612
lfoot -19.1941 0.191966
ltoes -12.6104
360
root 1.21188 17.8178 33.4336 -1.49025 -1.27782 3.67826
lowerback 7.05721 -1.06051 -4.84545
upperback 0.653231 -1.75181 1.16201
thorax -3.09982 -0.803362 4.0973
lowerneck -15.8398 -2.81493 -2.1442
upperneck 19.1695 -3.71271 1.59664
head 8.66893 -1.73833 0.445771
rclavicle 1.5207e-014 -1.66979e-014
rhumerus -32.7933 -12.837 -79.962
rradius 28.7291
rwrist 2.96256
rhand -13.3357 21.526
rfingers 7.12502
rthumb 12.7696 -8.06347
lclavicle 1.5207e-014 -1.66979e-014
lhumerus -29.3207 -8.68933 80.8113
lradius 39.0707
lwrist 6.18795
lhand -26.8825 26.5817
lfingers 7.12502
lthumb -0.30658 56.5612
rfemur -29.3084 7.09234 15.1809
rtibia 17.0268
rfoot -10.2833 -13.8534
rtoes -17.4835
lfemur 6.08016 -2.63841 -29.4056
ltibia 18.9235
lfoot -19.1341 0.024806
ltoes -12.7395
361
root 1.19079 17.8013 33.5965 -1.11814 -1.29295 3.22573
lowerback 6.96266 -1.12546 -4.60231
upperback 0.461416 -1.811 1.37242
thorax -3.24056 -0.826996 4.18569
lowerneck -15.9561 -2.80281 -2.17186
upperneck 19.3826 -3.70154 1.64126
head 8.7639 -1.7287 0.464143
rclavicle 2.99419e-014 -7.15625e-015
rhumerus -32.7455 -13.0063 -79.8245
rradius 28.3905
rwrist 3.41217
rhand -13.3228 21.69
rfingers 7.12502
rthumb 12.782 -7.89872
lclavicle 2.99419e-014 -7.15625e-015
lhumerus -29.2917 -8.71364 80.7501
lradius 39.208
lwrist 6.32916
lhand -26.8451 26.3772
lfingers 7.12502
lthumb -0.270444 56.3567
rfemur -29.2606 9.53479 14.5392
rtibia 14.2287
rfoot -10.8756 -15.9335
rtoes -17.2913
lfemur 6.4237 -2.50075 -28.8293
ltibia 18.4141
lfoot -19.1123 0.150023
ltoes -13.9207
362
root 1.17332 17.7772 33.7712 -0.89395 -1.26311 3.17434
lowerback 6.62234 -1.17976 -4.66786
upperback 0.517949 -1.86992 1.43505
thorax -2.98078 -0.863896 4.28096
lowerneck -16.019 -2.77803 -2.15126
upperneck 19.3114 -3.66751 1.63295
head 8.74971 -1.71183 0.461661
rclavicle -2.24627e-014 1.11319e-014
rhumerus -32.4815 -12.8725 -79.9225
rradius 28.3196
rwrist 3.47542
rhand -13.1715 21.562
rfingers 7.12502
rthumb 12.9279 -8.0175
lclavicle -2.24627e-014 1.11319e-014
lhumerus -28.9107 -8.87506 80.6584
lradius 39.1093
lwrist 6.49123
lhand -27.4209 25.5661
lfingers 7.12502
lthumb -0.826576 55.5442
rfemur -29.005 11.2751 13.6834
rtibia 11.7312
rfoot -11.4798 -17.547
rtoes -15.7689
lfemur 6.87195 -2.32653 -28.7172
ltibia 18.1626
lfoot -19.293 0.178776
ltoes -14.551
363
root 1.16338 17.7569 33.9441 -0.833679 -1.08846 3.28021
lowerback 6.48642 -1.24025 -4.72812
upperback 0.562997 -1.9493 1.39027
thorax -2.84891 -0.907723 4.26932
lowerneck -15.9693 -2.77223 -2.06053
upperneck 19.2123 -3.67595 1.60846
head 8.70472 -1.7125 0.438562
rclavicle -2.43511e-015 -7.95139e-016
rhumerus -32.4194 -12.8428 -80.0171
rradius 28.3762
rwrist 3.40989
rhand -13.3405 21.285
rfingers 7.12502
rthumb 12.765 -8.30481
lclavicle -2.43511e-015 -7.95139e-016
lhumerus -28.5965 -9.28071 80.5929
lradius 38.9719
lwrist 6.48177
lhand -27.8145 25.0525
lfingers 7.12502
lthumb -1.20676 55.0288
rfemur -28.6986 11.6294 13.228
rtibia 10.0877
rfoot -11.8007 -18.1811
rtoes -15.3803
lfemur 7.54835 -2.26755 -28.7966
ltibia 17.9244
lfoot -19.5003 -0.0250534
ltoes -14.3426
